<svg width="344" height="359" viewBox="0 0 344 359" fill="none" xmlns="http://www.w3.org/2000/svg">
<mask id="mask0" mask-type="alpha" maskUnits="userSpaceOnUse" x="0" y="0" width="344" height="359">
<ellipse cx="172" cy="179.5" rx="172" ry="179.5" fill="#C4C4C4"/>
</mask>
<g mask="url(#mask0)">
<rect x="-91" y="-7" width="512" height="418" fill="white"/>
<mask id="mask1" mask-type="alpha" maskUnits="userSpaceOnUse" x="128" y="219" width="97" height="89">
<rect x="128.798" y="219" width="96.1442" height="89" fill="#D5A991"/>
</mask>
<g mask="url(#mask1)">
<rect x="128.798" y="219" width="96.1442" height="89" fill="#D5A991"/>
<path d="M145.914 251.025C138.466 244.075 128.312 234.189 128.312 232.5V224L150.654 235.042C166.848 243.047 186.101 241.693 201.016 231.502L228.827 212.5L228.099 261.5L227.443 305.586C227.405 308.159 225.066 310.081 222.535 309.621C220.555 309.262 219.115 307.537 219.115 305.524V276L218.205 257.566C217.988 253.162 212.738 251.004 209.486 253.981C209.109 254.325 208.685 254.612 208.225 254.833L192.4 262.437C189.03 264.057 186.582 267.123 185.749 270.768L184.439 276.503C183.733 279.594 180.746 281.604 177.617 281.095C175.373 280.73 173.528 279.13 172.848 276.961L171.028 271.151C169.792 267.207 167.067 263.9 163.43 261.934L154.184 256.936C151.191 255.318 148.402 253.346 145.914 251.025Z" fill="#B8937E"/>
</g>
<path d="M177.5 359L139.828 297.5L215.172 297.5L177.5 359Z" fill="#404863"/>
<path d="M260.389 258.5L233.683 242.5L231.255 284L174.442 363L324 366V296.5L308.462 280.5L260.389 258.5Z" fill="#313649" stroke="#292D3E"/>
<path d="M92.8717 258.065L123.047 242L125.79 283.668L180.269 362.5L21 366V296.219L38.5564 280.154L92.8717 258.065Z" fill="#313649" stroke="#292D3E"/>
<path d="M224.457 258.5L223.971 232V224L225.913 224.5L239.51 250.5L256.505 273.5L239.51 287.5L247.764 299L208.433 328L174.928 362L208.433 307.5L224.457 258.5Z" fill="#6F7794" stroke="#292D3E"/>
<path d="M131.712 258.5L132.197 232V224L130.255 224.5L116.659 250.5L99.6635 273.5L116.659 287.5L108.404 299L147.736 328L181.24 362L147.736 307.5L131.712 258.5Z" fill="#6F7794" stroke="#292D3E"/>
<path d="M244.238 173.715C242.736 185.753 241.319 195.247 238.798 194.923C235.12 194.449 233.226 192.413 236.916 162.844C238.419 150.806 239.217 150.223 244.238 151.332C246.76 151.657 245.741 161.678 244.238 173.715Z" fill="#D5A991"/>
<path d="M117.303 172.615C118.806 184.652 119.768 194.206 117.246 194.531C113.568 195.005 111.234 193.513 107.541 163.944C106.038 151.907 106.668 151.139 111.803 150.94C114.324 150.615 115.8 160.578 117.303 172.615Z" fill="#D5A991"/>
<path d="M242.669 134.128C242.669 187.825 227.484 249.119 177.326 255.195C127.628 250.988 111.522 187.825 111.522 134.128C111.522 80.4304 143.016 60.7395 177.326 60.7395C211.635 60.7395 242.669 80.4304 242.669 134.128Z" fill="#D2A892"/>
<path d="M188.37 216.398H166.742L168.582 217.8H186.069L188.37 216.398Z" fill="#C49B85"/>
<path d="M174.104 209.386L154.777 208.919L165.821 212.658H183.308L204.475 209.853L174.104 209.386Z" fill="#C49B85"/>
<path d="M206.776 93.9279L224.262 100.94V92.5256L201.714 77.5674L148.335 82.7093L119.805 114.028L129.468 112.626L138.211 121.04V116.365L141.893 103.277L155.698 93.9279L157.078 106.081L160.76 96.2651L171.804 90.1884L178.706 86.4488L206.776 93.9279Z" fill="#C39B85"/>
<path d="M162.6 92.0581L176.405 83.6442H181.927L201.254 86.4488L219.201 95.3302L227.484 108.419L231.625 125.714L236.227 142.074L240.368 166.849L243.589 148.619L243.129 113.56L236.227 93.9279L219.201 71.4907L196.192 60.7395L176.405 57L150.176 60.7395L140.512 62.6093L134.99 66.3488H137.751L117.044 88.3186L111.522 111.223L109.681 138.802L114.283 166.849L115.663 150.488L117.044 133.193L120.265 119.17L125.787 108.419V111.223L134.99 119.17V111.223L140.512 101.874L153.857 93.9279V104.212L162.6 92.0581Z" fill="#292929"/>
<path d="M167.162 141.14C166.702 144.412 147.15 140.668 140.247 140.668C127.823 142.534 125.062 147.68 124.141 144.879C122.986 142.542 128.968 136.933 140.012 135.53C150.822 136.002 168.543 136.465 167.162 141.14Z" fill="#292929"/>
<path d="M185.839 141.204C186.299 144.514 205.851 140.728 212.753 140.728C225.177 142.615 227.938 147.82 228.859 144.987C230.014 142.623 224.032 136.949 212.988 135.53C202.179 136.007 184.458 136.476 185.839 141.204Z" fill="#292929"/>
<mask id="mask2" mask-type="alpha" maskUnits="userSpaceOnUse" x="134" y="149" width="24" height="11">
<path d="M156.902 153.791C157.187 157.894 151.627 158.281 144.191 158.341C138.934 158.248 132.849 153.205 135.005 152.108C137.161 151.011 137.732 150.045 144.11 150.026C151.626 150.004 156.616 149.688 156.902 153.791Z" fill="#E3E3E3"/>
</mask>
<g mask="url(#mask2)">
<path d="M156.942 154.361C157.259 158.92 151.176 159.065 143.737 159.074C138.476 158.931 133.636 154.18 135.02 152.323C136.404 150.467 139.054 149.93 145.606 149.922C153.045 149.913 156.624 149.802 156.942 154.361Z" fill="#E3E3E3"/>
<circle cx="146.383" cy="153.878" r="5.5" transform="rotate(-3.98095 146.383 153.878)" fill="#64412D"/>
<ellipse cx="146.383" cy="153.878" rx="1.5" ry="1.5" transform="rotate(-3.98095 146.383 153.878)" fill="#292929"/>
<ellipse rx="1.48193" ry="0.49432" transform="matrix(0.645462 -0.763793 0.773814 0.633413 143.611 152.436)" fill="#AA8976"/>
</g>
<path d="M157.656 153.692V153.692C156.355 151.715 154.21 150.452 151.849 150.276L149.101 150.071L142.594 150.247C139.607 150.329 136.681 151.108 134.05 152.524V152.524L133.164 153.054" stroke="black" stroke-linejoin="round"/>
<mask id="mask3" mask-type="alpha" maskUnits="userSpaceOnUse" x="195" y="149" width="24" height="11">
<path d="M196.097 153.791C195.811 157.895 201.373 158.282 208.808 158.341C214.066 158.249 220.151 153.205 217.995 152.108C215.839 151.011 215.267 150.045 208.89 150.026C201.373 150.005 196.382 149.688 196.097 153.791Z" fill="#E3E3E3"/>
</mask>
<g mask="url(#mask3)">
<path d="M196.057 154.361C195.74 158.921 201.824 159.066 209.263 159.074C214.524 158.931 219.364 154.18 217.98 152.323C216.596 150.467 213.946 149.93 207.393 149.922C199.954 149.914 196.375 149.802 196.057 154.361Z" fill="#E3E3E3"/>
<ellipse rx="5.50027" ry="5.5" transform="matrix(-0.997588 -0.0694083 -0.0694083 0.997588 206.617 153.878)" fill="#64412D"/>
<ellipse rx="1.50007" ry="1.5" transform="matrix(-0.997588 -0.0694083 -0.0694083 0.997588 206.617 153.878)" fill="#292929"/>
<ellipse rx="1.48197" ry="0.494333" transform="matrix(-0.645493 -0.763766 -0.773819 0.633407 209.389 152.436)" fill="#AA8976"/>
</g>
<path d="M195.342 153.693V153.693C196.644 151.715 198.789 150.453 201.15 150.276L203.898 150.071L210.406 150.248C213.392 150.329 216.319 151.108 218.95 152.524V152.524L219.836 153.054" stroke="black" stroke-linejoin="round"/>
<path d="M179.166 194.428L165.218 189.52L193.114 189.52L179.166 194.428Z" fill="#C49B85"/>
<path d="M183.308 145.814H185.148L182.848 155.163L192.511 189.753H184.228L179.626 155.163L183.308 145.814Z" fill="#C49B85"/>
<path d="M169.644 177.813L172.488 159.004L172.495 180.572L169.644 177.813Z" fill="#E8BAA7"/>
<path d="M115.838 188.253L111.69 155.977C111.601 155.281 112.143 154.666 112.843 154.666C113.42 154.666 113.91 155.088 113.994 155.659L119.119 190.375C119.633 193.857 120.584 197.26 121.951 200.503L126.493 211.286C128.894 216.984 132.309 222.199 136.573 226.677L144.597 235.104C146.976 237.602 150.098 239.266 153.499 239.846L160.671 241.07C163.253 241.511 165.824 240.234 167.034 237.911C168.072 235.917 170.134 234.666 172.382 234.666H182.462C184.531 234.666 186.364 235.998 187.004 237.965C187.727 240.184 189.947 241.556 192.255 241.21L201.485 239.827C205.25 239.263 208.685 237.359 211.158 234.464L218.817 225.502C221.987 221.792 224.564 217.616 226.459 213.119L230.714 203.019C232.78 198.115 234.073 192.92 234.546 187.62L237.868 150.451C237.965 149.366 238.774 148.479 239.845 148.284C241.465 147.988 242.902 149.36 242.68 150.992L237.127 191.9C236.791 194.371 236.171 196.794 235.28 199.123L227.321 219.904L226.328 221.78C222.977 228.116 218.732 233.937 213.724 239.065L209.888 242.993C204.829 248.173 198.702 252.191 191.933 254.765L190.396 255.35C187.431 256.477 184.335 257.22 181.181 257.56L180.575 257.625C178.262 257.874 175.928 257.867 173.617 257.604C170.374 257.235 167.209 256.366 164.232 255.029L160.262 253.244C153.258 250.095 146.929 245.621 141.624 240.069L136.647 234.859C131.408 229.375 127.156 223.027 124.078 216.095L116.957 193.361C116.435 191.695 116.06 189.985 115.838 188.253Z" fill="#292929"/>
</g>
</svg>
